<svg xmlns="http://www.w3.org/2000/svg" xmlns:xlink="http://www.w3.org/1999/xlink" xmlns:lucid="lucid" width="646.4" height="1538.53"><g transform="translate(-99.75426087433829 341.1747824431509)" lucid:page-tab-id="0_0"><path d="M0-500h1000v2000H0z" fill="#fff"/><path d="M472.95-340.68c11.8 0 21.34 9.56 21.34 21.34S484.73-298 472.94-298h-100c-11.78 0-21.33-9.56-21.33-21.34s9.55-21.34 21.33-21.34z" stroke="#000" stroke-opacity="0" fill="#322354"/><use xlink:href="#a" transform="matrix(1,0,0,1,356.6196284307501,-335.6747824431509) translate(43.07907407407408 21.90277777777778)"/><path d="M297.27-246.57h251.37v102.4H297.27z" stroke="#3a414a" fill="#fff"/><use xlink:href="#b" transform="matrix(1,0,0,1,309.27027786327966,-234.57157613608263) translate(16.909259259259258 26.210416666666667)"/><use xlink:href="#c" transform="matrix(1,0,0,1,309.27027786327966,-234.57157613608263) translate(95.77592592592592 26.210416666666667)"/><use xlink:href="#d" transform="matrix(1,0,0,1,309.27027786327966,-234.57157613608263) translate(174.59444444444443 26.210416666666667)"/><use xlink:href="#e" transform="matrix(1,0,0,1,309.27027786327966,-234.57157613608263) translate(56.8 57.41041666666667)"/><use xlink:href="#f" transform="matrix(1,0,0,1,309.27027786327966,-234.57157613608263) translate(128.97407407407408 57.41041666666667)"/><path d="M297.27-92.73h251.37V9.67H297.27z" stroke="#3a414a" fill="#fff"/><use xlink:href="#g" transform="matrix(1,0,0,1,309.27027786327966,-80.73503649568097) translate(13.370370370370352 26.210416666666667)"/><use xlink:href="#h" transform="matrix(1,0,0,1,309.27027786327966,-80.73503649568097) translate(49.914814814814804 26.210416666666667)"/><use xlink:href="#i" transform="matrix(1,0,0,1,309.27027786327966,-80.73503649568097) translate(139.32592592592596 26.210416666666667)"/><use xlink:href="#j" transform="matrix(1,0,0,1,309.27027786327966,-80.73503649568097) translate(155.6962962962963 26.210416666666667)"/><use xlink:href="#k" transform="matrix(1,0,0,1,309.27027786327966,-80.73503649568097) translate(194.45555555555558 26.210416666666667)"/><use xlink:href="#l" transform="matrix(1,0,0,1,309.27027786327966,-80.73503649568097) translate(74.08518518518518 57.41041666666667)"/><use xlink:href="#m" transform="matrix(1,0,0,1,309.27027786327966,-80.73503649568097) translate(115.3962962962963 57.41041666666667)"/><path d="M422.95-143.17v35.44" stroke="#3a414a" fill="none"/><path d="M423.43-143.16h-.95v-.5h.95z" stroke="#3a414a" stroke-width=".05" fill="#3a414a"/><path d="M422.95-94.23l-7.5-13h15z" stroke="#3a414a" fill="#3a414a"/><path d="M422.95 10.66v35.45" stroke="#3a414a" fill="none"/><path d="M423.43 10.68h-.95v-.52h.95z" stroke="#3a414a" stroke-width=".05" fill="#3a414a"/><path d="M422.95 59.6l-7.5-13h15z" stroke="#3a414a" fill="#3a414a"/><path d="M422.95 61.1l125.7 64.45L422.94 190l-125.68-64.44z" stroke="#3a414a" fill="#fff"/><use xlink:href="#n" transform="matrix(1,0,0,1,302.2702778632794,66.10150314472071) translate(56.03462962962961 62.21041666666667)"/><use xlink:href="#o" transform="matrix(1,0,0,1,302.2702778632794,66.10150314472071) translate(99.36796296296296 62.21041666666667)"/><path d="M494.3 300.1h251.35v102.4H494.3z" stroke="#3a414a" fill="#fff"/><use xlink:href="#p" transform="matrix(1,0,0,1,506.2862948522211,312.10884664093385) translate(41.41666666666666 43.49166666666667)"/><use xlink:href="#q" transform="matrix(1,0,0,1,506.2862948522211,312.10884664093385) translate(88.60185185185185 43.49166666666667)"/><use xlink:href="#r" transform="matrix(1,0,0,1,506.2862948522211,312.10884664093385) translate(121.19814814814816 43.49166666666667)"/><path d="M100.25 300.1h251.37v102.4H100.25z" stroke="#3a414a" fill="#fff"/><use xlink:href="#p" transform="matrix(1,0,0,1,112.25426087433829,312.10884664093385) translate(41.41666666666666 43.49166666666667)"/><use xlink:href="#q" transform="matrix(1,0,0,1,112.25426087433829,312.10884664093385) translate(88.60185185185185 43.49166666666667)"/><use xlink:href="#r" transform="matrix(1,0,0,1,112.25426087433829,312.10884664093385) translate(121.19814814814816 43.49166666666667)"/><path d="M620.44 285.12h-.95v-97h.94zm-5.46-159.96l1 .24.93.38.88.54.77.66.66.77.54.87.4.93.23 1 .07 1v35.25h-.95v-35.23l-.08-.88-.2-.85-.33-.8-.46-.74-.57-.65-.65-.56-.74-.47-.8-.33-.85-.2-.88-.07h-63.72v-.95H614z" stroke="#3a414a" stroke-width=".05" fill="#3a414a"/><path d="M550.24 126.03h-1.44l.93-.47-.93-.48h1.44z" fill="#3a414a"/><path stroke="#3a414a" stroke-width=".05" fill="#3a414a"/><path d="M619.97 298.6l-7.5-12.98h15z" fill="#3a414a"/><path d="M619.97 299.56l-8.32-14.42h16.64zm-6.68-13.47l6.67 11.56 6.68-11.57z" stroke="#3a414a" stroke-width=".05" fill="#3a414a"/><use xlink:href="#s" transform="matrix(1,0,0,1,589.8702130757298,166.796530280597) translate(0 14.222222222222223)"/><path d="M226.4 285.12h-.94v-97h.95zm69.28-159.1h-63.72l-.9.08-.83.2-.8.33-.74.46-.67.55-.56.66-.46.75-.32.8-.2.84-.07.87v35.23h-.94v-35.26l.08-1 .24-1 .4-.92.52-.87.66-.77.77-.66.87-.53.94-.4.98-.24 1-.08h63.76z" stroke="#3a414a" stroke-width=".05" fill="#3a414a"/><path d="M296.18 125.56l.92.47h-1.44v-.95h1.44z" fill="#3a414a"/><path stroke="#3a414a" stroke-width=".05" fill="#3a414a"/><path d="M225.94 298.6l-7.5-12.98h15z" fill="#3a414a"/><path d="M225.94 299.56l-8.33-14.42h16.66zm-6.68-13.47l6.68 11.56 6.67-11.57z" stroke="#3a414a" stroke-width=".05" fill="#3a414a"/><use xlink:href="#t" transform="matrix(1,0,0,1,195.36904329537782,166.79653043965607) translate(0 14.222222222222223)"/><path d="M494.3 464.87h251.35v102.4H494.3z" stroke="#3a414a" fill="#fff"/><use xlink:href="#u" transform="matrix(1,0,0,1,506.2862948522211,476.86498592144176) translate(2.392592592592564 43.49166666666667)"/><use xlink:href="#v" transform="matrix(1,0,0,1,506.2862948522211,476.86498592144176) translate(55.307407407407396 43.49166666666667)"/><use xlink:href="#w" transform="matrix(1,0,0,1,506.2862948522211,476.86498592144176) translate(98.64074074074074 43.49166666666667)"/><use xlink:href="#x" transform="matrix(1,0,0,1,506.2862948522211,476.86498592144176) translate(132.34444444444443 43.49166666666667)"/><use xlink:href="#y" transform="matrix(1,0,0,1,506.2862948522211,476.86498592144176) translate(189.15925925925927 43.49166666666667)"/><path d="M619.97 403.5v46.38" stroke="#3a414a" fill="none"/><path d="M620.44 403.52h-.95v-.5h.94z" stroke="#3a414a" stroke-width=".05" fill="#3a414a"/><path d="M619.97 463.37l-7.5-13h15z" stroke="#3a414a" fill="#3a414a"/><path d="M472.95 1154.2c11.8 0 21.34 9.54 21.34 21.32 0 11.78-9.56 21.33-21.35 21.33h-100c-11.78 0-21.33-9.55-21.33-21.33 0-11.78 9.55-21.33 21.33-21.33z" stroke="#000" stroke-opacity="0" fill="#322354"/><use xlink:href="#z" transform="matrix(1,0,0,1,356.6196281855536,1159.1865593333903) translate(46.751913580246914 21.90277777777778)"/><path d="M422.95-297.5v36.44" stroke="#3a414a" fill="none"/><path d="M423.43-297.5h-.95v-.5h.95z" stroke="#3a414a" stroke-width=".05" fill="#3a414a"/><path d="M422.95-247.57l-7.5-13h15z" stroke="#3a414a" fill="#3a414a"/><path d="M100.25 464.87h251.37v102.4H100.25z" stroke="#3a414a" fill="#fff"/><use xlink:href="#u" transform="matrix(1,0,0,1,112.25426087433829,476.86498592144176) translate(2.392592592592564 43.49166666666667)"/><use xlink:href="#v" transform="matrix(1,0,0,1,112.25426087433829,476.86498592144176) translate(55.307407407407396 43.49166666666667)"/><use xlink:href="#w" transform="matrix(1,0,0,1,112.25426087433829,476.86498592144176) translate(98.64074074074074 43.49166666666667)"/><use xlink:href="#x" transform="matrix(1,0,0,1,112.25426087433829,476.86498592144176) translate(132.34444444444443 43.49166666666667)"/><use xlink:href="#y" transform="matrix(1,0,0,1,112.25426087433829,476.86498592144176) translate(189.15925925925927 43.49166666666667)"/><path d="M225.94 403.5v46.38" stroke="#3a414a" fill="none"/><path d="M226.4 403.52h-.94v-.5h.95z" stroke="#3a414a" stroke-width=".05" fill="#3a414a"/><path d="M225.94 463.37l-7.5-13h15z" stroke="#3a414a" fill="#3a414a"/><path d="M494.3 629.62h251.35v102.4H494.3z" stroke="#3a414a" fill="#fff"/><use xlink:href="#A" transform="matrix(1,0,0,1,506.28629485222024,641.6211252019497) translate(6.749999999999986 33.61666666666667)"/><use xlink:href="#v" transform="matrix(1,0,0,1,506.28629485222024,641.6211252019497) translate(52.92407407407407 33.61666666666667)"/><use xlink:href="#q" transform="matrix(1,0,0,1,506.28629485222024,641.6211252019497) translate(96.25740740740741 33.61666666666667)"/><use xlink:href="#w" transform="matrix(1,0,0,1,506.28629485222024,641.6211252019497) translate(128.85370370370373 33.61666666666667)"/><use xlink:href="#B" transform="matrix(1,0,0,1,506.28629485222024,641.6211252019497) translate(162.55740740740742 33.61666666666667)"/><use xlink:href="#C" transform="matrix(1,0,0,1,506.28629485222024,641.6211252019497) translate(79.35740740740741 54.41666666666667)"/><path d="M100.25 629.62h251.37v102.4H100.25z" stroke="#3a414a" fill="#fff"/><use xlink:href="#A" transform="matrix(1,0,0,1,112.25426087433829,641.6211252019497) translate(6.292592592592584 33.61666666666667)"/><use xlink:href="#v" transform="matrix(1,0,0,1,112.25426087433829,641.6211252019497) translate(52.46666666666667 33.61666666666667)"/><use xlink:href="#q" transform="matrix(1,0,0,1,112.25426087433829,641.6211252019497) translate(95.80000000000001 33.61666666666667)"/><use xlink:href="#w" transform="matrix(1,0,0,1,112.25426087433829,641.6211252019497) translate(128.39629629629633 33.61666666666667)"/><use xlink:href="#D" transform="matrix(1,0,0,1,112.25426087433829,641.6211252019497) translate(162.10000000000002 33.61666666666667)"/><use xlink:href="#C" transform="matrix(1,0,0,1,112.25426087433829,641.6211252019497) translate(79.35740740740741 54.41666666666667)"/><path d="M494.3 794.38h251.35v102.4H494.3z" stroke="#3a414a" fill="#fff"/><g><use xlink:href="#E" transform="matrix(1,0,0,1,506.2862948522211,806.3772644824576) translate(24.73333333333332 26.210416666666667)"/><use xlink:href="#F" transform="matrix(1,0,0,1,506.2862948522211,806.3772644824576) translate(69.5111111111111 26.210416666666667)"/><use xlink:href="#G" transform="matrix(1,0,0,1,506.2862948522211,806.3772644824576) translate(152.27777777777777 26.210416666666667)"/><use xlink:href="#H" transform="matrix(1,0,0,1,506.2862948522211,806.3772644824576) translate(188.82222222222222 26.210416666666667)"/><use xlink:href="#x" transform="matrix(1,0,0,1,506.2862948522211,806.3772644824576) translate(71.70185185185184 57.41041666666667)"/><use xlink:href="#I" transform="matrix(1,0,0,1,506.2862948522211,806.3772644824576) translate(128.51666666666668 57.41041666666667)"/></g><path d="M100.25 794.38h251.37v102.4H100.25z" stroke="#3a414a" fill="#fff"/><g><use xlink:href="#E" transform="matrix(1,0,0,1,112.25426087433829,806.3772644824576) translate(24.275925925925904 33.61666666666667)"/><use xlink:href="#J" transform="matrix(1,0,0,1,112.25426087433829,806.3772644824576) translate(69.05370370370369 33.61666666666667)"/><use xlink:href="#G" transform="matrix(1,0,0,1,112.25426087433829,806.3772644824576) translate(152.73518518518517 33.61666666666667)"/><use xlink:href="#H" transform="matrix(1,0,0,1,112.25426087433829,806.3772644824576) translate(189.27962962962965 33.61666666666667)"/><use xlink:href="#x" transform="matrix(1,0,0,1,112.25426087433829,806.3772644824576) translate(71.70185185185184 54.41666666666667)"/><use xlink:href="#I" transform="matrix(1,0,0,1,112.25426087433829,806.3772644824576) translate(128.51666666666668 54.41666666666667)"/></g><path d="M297.27 1000.22h251.37v102.4H297.27z" stroke="#3a414a" fill="#fff"/><g><use xlink:href="#K" transform="matrix(1,0,0,1,309.27027786327915,1012.2164139761342) translate(12.98518518518516 43.49166666666667)"/><use xlink:href="#L" transform="matrix(1,0,0,1,309.27027786327915,1012.2164139761342) translate(74.47037037037035 43.49166666666667)"/><use xlink:href="#M" transform="matrix(1,0,0,1,309.27027786327915,1012.2164139761342) translate(144.76666666666665 43.49166666666667)"/></g><path d="M619.97 568.26v46.37" stroke="#3a414a" fill="none"/><path d="M620.44 568.28h-.95v-.5h.94z" stroke="#3a414a" stroke-width=".05" fill="#3a414a"/><path d="M619.97 628.12l-7.5-13h15z" stroke="#3a414a" fill="#3a414a"/><path d="M225.94 568.26v46.37" stroke="#3a414a" fill="none"/><path d="M226.4 568.28h-.94v-.5h.95z" stroke="#3a414a" stroke-width=".05" fill="#3a414a"/><path d="M225.94 628.12l-7.5-13h15z" stroke="#3a414a" fill="#3a414a"/><path d="M619.97 733.02v46.37" stroke="#3a414a" fill="none"/><path d="M620.44 733.03h-.95v-.5h.94z" stroke="#3a414a" stroke-width=".05" fill="#3a414a"/><path d="M619.97 792.88l-7.5-13h15z" stroke="#3a414a" fill="#3a414a"/><path d="M225.94 733.02v46.37" stroke="#3a414a" fill="none"/><path d="M226.4 733.03h-.94v-.5h.95z" stroke="#3a414a" stroke-width=".05" fill="#3a414a"/><path d="M225.94 792.88l-7.5-13h15z" stroke="#3a414a" fill="#3a414a"/><path d="M619.97 897.78v44.72a6 6 0 0 1-6 6H428.95a6 6 0 0 0-6 6v30.73" stroke="#3a414a" fill="none"/><path d="M620.44 897.8h-.95v-.52h.94z" stroke="#3a414a" stroke-width=".05" fill="#3a414a"/><path d="M422.95 998.72l-7.5-13h15z" stroke="#3a414a" fill="#3a414a"/><path d="M225.94 897.78v44.72a6 6 0 0 0 6 6h185a6 6 0 0 1 6 6v30.73" stroke="#3a414a" fill="none"/><path d="M226.4 897.8h-.94v-.52h.95z" stroke="#3a414a" stroke-width=".05" fill="#3a414a"/><path d="M422.95 998.72l-7.5-13h15z" stroke="#3a414a" fill="#3a414a"/><path d="M422.95 1103.62v36.08" stroke="#3a414a" fill="none"/><path d="M423.43 1103.63h-.95v-.5h.95z" stroke="#3a414a" stroke-width=".05" fill="#3a414a"/><path d="M422.95 1153.2l-7.5-13h15z" stroke="#3a414a" fill="#3a414a"/><defs><path fill="#fff" d="M185-189c-5-48-123-54-124 2 14 75 158 14 163 119 3 78-121 87-175 55-17-10-28-26-33-46l33-7c5 56 141 63 141-1 0-78-155-14-162-118-5-82 145-84 179-34 5 7 8 16 11 25" id="N"/><path fill="#fff" d="M59-47c-2 24 18 29 38 22v24C64 9 27 4 27-40v-127H5v-23h24l9-43h21v43h35v23H59v120" id="O"/><path fill="#fff" d="M141-36C126-15 110 5 73 4 37 3 15-17 15-53c-1-64 63-63 125-63 3-35-9-54-41-54-24 1-41 7-42 31l-33-3c5-37 33-52 76-52 45 0 72 20 72 64v82c-1 20 7 32 28 27v20c-31 9-61-2-59-35zM48-53c0 20 12 33 32 33 41-3 63-29 60-74-43 2-92-5-92 41" id="P"/><path fill="#fff" d="M114-163C36-179 61-72 57 0H25l-1-190h30c1 12-1 29 2 39 6-27 23-49 58-41v29" id="Q"/><g id="a"><use transform="matrix(0.06172839506172839,0,0,0.06172839506172839,0,0)" xlink:href="#N"/><use transform="matrix(0.06172839506172839,0,0,0.06172839506172839,14.814814814814813,0)" xlink:href="#O"/><use transform="matrix(0.06172839506172839,0,0,0.06172839506172839,20.98765432098765,0)" xlink:href="#P"/><use transform="matrix(0.06172839506172839,0,0,0.06172839506172839,33.33333333333333,0)" xlink:href="#Q"/><use transform="matrix(0.06172839506172839,0,0,0.06172839506172839,40.679012345679006,0)" xlink:href="#O"/></g><path d="M212-179c-10-28-35-45-73-45-59 0-87 40-87 99 0 60 29 101 89 101 43 0 62-24 78-52l27 14C228-24 195 4 139 4 59 4 22-46 18-125c-6-104 99-153 187-111 19 9 31 26 39 46" id="R"/><path d="M100-194c62-1 85 37 85 99 1 63-27 99-86 99S16-35 15-95c0-66 28-99 85-99zM99-20c44 1 53-31 53-75 0-43-8-75-51-75s-53 32-53 75 10 74 51 75" id="S"/><path d="M117-194c89-4 53 116 60 194h-32v-121c0-31-8-49-39-48C34-167 62-67 57 0H25l-1-190h30c1 10-1 24 2 32 11-22 29-35 61-36" id="T"/><path d="M135-143c-3-34-86-38-87 0 15 53 115 12 119 90S17 21 10-45l28-5c4 36 97 45 98 0-10-56-113-15-118-90-4-57 82-63 122-42 12 7 21 19 24 35" id="U"/><path d="M59-47c-2 24 18 29 38 22v24C64 9 27 4 27-40v-127H5v-23h24l9-43h21v43h35v23H59v120" id="V"/><path d="M114-163C36-179 61-72 57 0H25l-1-190h30c1 12-1 29 2 39 6-27 23-49 58-41v29" id="W"/><path d="M84 4C-5 8 30-112 23-190h32v120c0 31 7 50 39 49 72-2 45-101 50-169h31l1 190h-30c-1-10 1-25-2-33-11 22-28 36-60 37" id="X"/><path d="M96-169c-40 0-48 33-48 73s9 75 48 75c24 0 41-14 43-38l32 2c-6 37-31 61-74 61-59 0-76-41-82-99-10-93 101-131 147-64 4 7 5 14 7 22l-32 3c-4-21-16-35-41-35" id="Y"/><g id="b"><use transform="matrix(0.048148148148148155,0,0,0.048148148148148155,0,0)" xlink:href="#R"/><use transform="matrix(0.048148148148148155,0,0,0.048148148148148155,12.470370370370372,0)" xlink:href="#S"/><use transform="matrix(0.048148148148148155,0,0,0.048148148148148155,22.1,0)" xlink:href="#T"/><use transform="matrix(0.048148148148148155,0,0,0.048148148148148155,31.729629629629635,0)" xlink:href="#U"/><use transform="matrix(0.048148148148148155,0,0,0.048148148148148155,40.3962962962963,0)" xlink:href="#V"/><use transform="matrix(0.048148148148148155,0,0,0.048148148148148155,45.211111111111116,0)" xlink:href="#W"/><use transform="matrix(0.048148148148148155,0,0,0.048148148148148155,50.94074074074075,0)" xlink:href="#X"/><use transform="matrix(0.048148148148148155,0,0,0.048148148148148155,60.57037037037038,0)" xlink:href="#Y"/><use transform="matrix(0.048148148148148155,0,0,0.048148148148148155,69.23703703703704,0)" xlink:href="#V"/></g><path d="M143 4C61 4 22-44 18-125c-5-107 100-154 193-111 17 8 29 25 37 43l-32 9c-13-25-37-40-76-40-61 0-88 39-88 99 0 61 29 100 91 101 35 0 62-11 79-27v-45h-74v-28h105v86C228-13 192 4 143 4" id="Z"/><path d="M141-36C126-15 110 5 73 4 37 3 15-17 15-53c-1-64 63-63 125-63 3-35-9-54-41-54-24 1-41 7-42 31l-33-3c5-37 33-52 76-52 45 0 72 20 72 64v82c-1 20 7 32 28 27v20c-31 9-61-2-59-35zM48-53c0 20 12 33 32 33 41-3 63-29 60-74-43 2-92-5-92 41" id="aa"/><path d="M115-194c55 1 70 41 70 98S169 2 115 4C84 4 66-9 55-30l1 105H24l-1-265h31l2 30c10-21 28-34 59-34zm-8 174c40 0 45-34 45-75s-6-73-45-74c-42 0-51 32-51 76 0 43 10 73 51 73" id="ab"/><path d="M106-169C34-169 62-67 57 0H25v-261h32l-1 103c12-21 28-36 61-36 89 0 53 116 60 194h-32v-121c2-32-8-49-39-48" id="ac"/><path d="M24-231v-30h32v30H24zM24 0v-190h32V0H24" id="ad"/><path d="M24 0v-261h32V0H24" id="ae"/><g id="c"><use transform="matrix(0.048148148148148155,0,0,0.048148148148148155,0,0)" xlink:href="#Z"/><use transform="matrix(0.048148148148148155,0,0,0.048148148148148155,13.481481481481483,0)" xlink:href="#W"/><use transform="matrix(0.048148148148148155,0,0,0.048148148148148155,19.211111111111112,0)" xlink:href="#aa"/><use transform="matrix(0.048148148148148155,0,0,0.048148148148148155,28.84074074074074,0)" xlink:href="#ab"/><use transform="matrix(0.048148148148148155,0,0,0.048148148148148155,38.470370370370375,0)" xlink:href="#ac"/><use transform="matrix(0.048148148148148155,0,0,0.048148148148148155,48.10000000000001,0)" xlink:href="#ad"/><use transform="matrix(0.048148148148148155,0,0,0.048148148148148155,51.90370370370371,0)" xlink:href="#Y"/><use transform="matrix(0.048148148148148155,0,0,0.048148148148148155,60.57037037037038,0)" xlink:href="#aa"/><use transform="matrix(0.048148148148148155,0,0,0.048148148148148155,70.20000000000002,0)" xlink:href="#ae"/></g><path d="M232-93c-1 65-40 97-104 97C67 4 28-28 28-90v-158h33c8 89-33 224 67 224 102 0 64-133 71-224h33v155" id="af"/><path d="M100-194c63 0 86 42 84 106H49c0 40 14 67 53 68 26 1 43-12 49-29l28 8c-11 28-37 45-77 45C44 4 14-33 15-96c1-61 26-98 85-98zm52 81c6-60-76-77-97-28-3 7-6 17-6 28h103" id="ag"/><g id="d"><use transform="matrix(0.048148148148148155,0,0,0.048148148148148155,0,0)" xlink:href="#af"/><use transform="matrix(0.048148148148148155,0,0,0.048148148148148155,12.470370370370372,0)" xlink:href="#U"/><use transform="matrix(0.048148148148148155,0,0,0.048148148148148155,21.13703703703704,0)" xlink:href="#ag"/><use transform="matrix(0.048148148148148155,0,0,0.048148148148148155,30.766666666666673,0)" xlink:href="#W"/></g><path d="M33 0v-248h34V0H33" id="ah"/><path d="M101-234c-31-9-42 10-38 44h38v23H63V0H32v-167H5v-23h27c-7-52 17-82 69-68v24" id="ai"/><g id="e"><use transform="matrix(0.048148148148148155,0,0,0.048148148148148155,0,0)" xlink:href="#ah"/><use transform="matrix(0.048148148148148155,0,0,0.048148148148148155,4.814814814814816,0)" xlink:href="#T"/><use transform="matrix(0.048148148148148155,0,0,0.048148148148148155,14.444444444444446,0)" xlink:href="#V"/><use transform="matrix(0.048148148148148155,0,0,0.048148148148148155,19.259259259259263,0)" xlink:href="#ag"/><use transform="matrix(0.048148148148148155,0,0,0.048148148148148155,28.888888888888893,0)" xlink:href="#W"/><use transform="matrix(0.048148148148148155,0,0,0.048148148148148155,34.61851851851852,0)" xlink:href="#ai"/><use transform="matrix(0.048148148148148155,0,0,0.048148148148148155,39.43333333333334,0)" xlink:href="#aa"/><use transform="matrix(0.048148148148148155,0,0,0.048148148148148155,49.06296296296297,0)" xlink:href="#Y"/><use transform="matrix(0.048148148148148155,0,0,0.048148148148148155,57.729629629629635,0)" xlink:href="#ag"/></g><path d="M87 75C49 33 22-17 22-94c0-76 28-126 65-167h31c-38 41-64 92-64 168S80 34 118 75H87" id="aj"/><path d="M33-261c38 41 65 92 65 168S71 34 33 75H2C39 34 66-17 66-93S39-220 2-261h31" id="ak"/><g id="f"><use transform="matrix(0.048148148148148155,0,0,0.048148148148148155,0,0)" xlink:href="#aj"/><use transform="matrix(0.048148148148148155,0,0,0.048148148148148155,5.72962962962963,0)" xlink:href="#Z"/><use transform="matrix(0.048148148148148155,0,0,0.048148148148148155,19.211111111111112,0)" xlink:href="#af"/><use transform="matrix(0.048148148148148155,0,0,0.048148148148148155,31.681481481481487,0)" xlink:href="#ah"/><use transform="matrix(0.048148148148148155,0,0,0.048148148148148155,36.4962962962963,0)" xlink:href="#ak"/></g><path d="M233-177c-1 41-23 64-60 70L243 0h-38l-65-103H63V0H30v-248c88 3 205-21 203 71zM63-129c60-2 137 13 137-47 0-61-80-42-137-45v92" id="al"/><g id="g"><use transform="matrix(0.048148148148148155,0,0,0.048148148148148155,0,0)" xlink:href="#al"/><use transform="matrix(0.048148148148148155,0,0,0.048148148148148155,12.470370370370372,0)" xlink:href="#X"/><use transform="matrix(0.048148148148148155,0,0,0.048148148148148155,22.1,0)" xlink:href="#T"/></g><path d="M205 0l-28-72H64L36 0H1l101-248h38L239 0h-34zm-38-99l-47-123c-12 45-31 82-46 123h93" id="am"/><g id="h"><use transform="matrix(0.048148148148148155,0,0,0.048148148148148155,0,0)" xlink:href="#am"/><use transform="matrix(0.048148148148148155,0,0,0.048148148148148155,11.555555555555557,0)" xlink:href="#ab"/><use transform="matrix(0.048148148148148155,0,0,0.048148148148148155,21.18518518518519,0)" xlink:href="#ab"/><use transform="matrix(0.048148148148148155,0,0,0.048148148148148155,30.814814814814824,0)" xlink:href="#ae"/><use transform="matrix(0.048148148148148155,0,0,0.048148148148148155,34.61851851851853,0)" xlink:href="#ad"/><use transform="matrix(0.048148148148148155,0,0,0.048148148148148155,38.42222222222223,0)" xlink:href="#Y"/><use transform="matrix(0.048148148148148155,0,0,0.048148148148148155,47.0888888888889,0)" xlink:href="#aa"/><use transform="matrix(0.048148148148148155,0,0,0.048148148148148155,56.718518518518536,0)" xlink:href="#V"/><use transform="matrix(0.048148148148148155,0,0,0.048148148148148155,61.53333333333335,0)" xlink:href="#ad"/><use transform="matrix(0.048148148148148155,0,0,0.048148148148148155,65.33703703703706,0)" xlink:href="#S"/><use transform="matrix(0.048148148148148155,0,0,0.048148148148148155,74.9666666666667,0)" xlink:href="#T"/></g><path d="M234-2c-28 10-62 0-77-18C117 19 8 12 13-65c3-43 29-61 60-76-25-40-17-114 47-108 35 3 59 15 59 50 0 44-40 53-71 69 14 26 32 50 51 72 14-21 24-43 30-72l26 8c-9 33-21 57-38 82 13 13 33 22 57 15v23zM97-151c25-10 52-18 56-48-1-18-13-29-33-29-42 0-39 50-23 77zM42-66c-3 51 71 58 98 28-20-24-41-51-56-80-23 10-40 24-42 52" id="an"/><use transform="matrix(0.048148148148148155,0,0,0.048148148148148155,0,0)" xlink:href="#an" id="i"/><path d="M266 0h-40l-56-210L115 0H75L2-248h35L96-30l15-64 43-154h32l59 218 59-218h35" id="ao"/><g id="j"><use transform="matrix(0.048148148148148155,0,0,0.048148148148148155,0,0)" xlink:href="#ao"/><use transform="matrix(0.048148148148148155,0,0,0.048148148148148155,15.696296296296296,0)" xlink:href="#aa"/><use transform="matrix(0.048148148148148155,0,0,0.048148148148148155,25.32592592592593,0)" xlink:href="#ad"/><use transform="matrix(0.048148148148148155,0,0,0.048148148148148155,29.129629629629633,0)" xlink:href="#V"/></g><g id="k"><use transform="matrix(0.048148148148148155,0,0,0.048148148148148155,0,0)" xlink:href="#ai"/><use transform="matrix(0.048148148148148155,0,0,0.048148148148148155,4.814814814814816,0)" xlink:href="#S"/><use transform="matrix(0.048148148148148155,0,0,0.048148148148148155,14.444444444444446,0)" xlink:href="#W"/></g><g id="l"><use transform="matrix(0.048148148148148155,0,0,0.048148148148148155,0,0)" xlink:href="#af"/><use transform="matrix(0.048148148148148155,0,0,0.048148148148148155,12.470370370370372,0)" xlink:href="#U"/><use transform="matrix(0.048148148148148155,0,0,0.048148148148148155,21.13703703703704,0)" xlink:href="#ag"/><use transform="matrix(0.048148148148148155,0,0,0.048148148148148155,30.766666666666673,0)" xlink:href="#W"/></g><g id="m"><use transform="matrix(0.048148148148148155,0,0,0.048148148148148155,0,0)" xlink:href="#ah"/><use transform="matrix(0.048148148148148155,0,0,0.048148148148148155,4.814814814814816,0)" xlink:href="#T"/><use transform="matrix(0.048148148148148155,0,0,0.048148148148148155,14.444444444444446,0)" xlink:href="#ab"/><use transform="matrix(0.048148148148148155,0,0,0.048148148148148155,24.074074074074076,0)" xlink:href="#X"/><use transform="matrix(0.048148148148148155,0,0,0.048148148148148155,33.70370370370371,0)" xlink:href="#V"/></g><g id="n"><use transform="matrix(0.048148148148148155,0,0,0.048148148148148155,0,0)" xlink:href="#ah"/><use transform="matrix(0.048148148148148155,0,0,0.048148148148148155,4.814814814814816,0)" xlink:href="#T"/><use transform="matrix(0.048148148148148155,0,0,0.048148148148148155,14.444444444444446,0)" xlink:href="#ab"/><use transform="matrix(0.048148148148148155,0,0,0.048148148148148155,24.074074074074076,0)" xlink:href="#X"/><use transform="matrix(0.048148148148148155,0,0,0.048148148148148155,33.70370370370371,0)" xlink:href="#V"/></g><path d="M30-248c87 1 191-15 191 75 0 78-77 80-158 76V0H30v-248zm33 125c57 0 124 11 124-50 0-59-68-47-124-48v98" id="ap"/><path d="M177-190C167-65 218 103 67 71c-23-6-38-20-44-43l32-5c15 47 100 32 89-28v-30C133-14 115 1 83 1 29 1 15-40 15-95c0-56 16-97 71-98 29-1 48 16 59 35 1-10 0-23 2-32h30zM94-22c36 0 50-32 50-73 0-42-14-75-50-75-39 0-46 34-46 75s6 73 46 73" id="aq"/><g id="o"><use transform="matrix(0.048148148148148155,0,0,0.048148148148148155,0,0)" xlink:href="#ap"/><use transform="matrix(0.048148148148148155,0,0,0.048148148148148155,11.555555555555557,0)" xlink:href="#W"/><use transform="matrix(0.048148148148148155,0,0,0.048148148148148155,17.28518518518519,0)" xlink:href="#S"/><use transform="matrix(0.048148148148148155,0,0,0.048148148148148155,26.914814814814818,0)" xlink:href="#Y"/><use transform="matrix(0.048148148148148155,0,0,0.048148148148148155,35.58148148148149,0)" xlink:href="#ag"/><use transform="matrix(0.048148148148148155,0,0,0.048148148148148155,45.21111111111112,0)" xlink:href="#U"/><use transform="matrix(0.048148148148148155,0,0,0.048148148148148155,53.877777777777794,0)" xlink:href="#U"/><use transform="matrix(0.048148148148148155,0,0,0.048148148148148155,62.544444444444466,0)" xlink:href="#ad"/><use transform="matrix(0.048148148148148155,0,0,0.048148148148148155,66.34814814814817,0)" xlink:href="#T"/><use transform="matrix(0.048148148148148155,0,0,0.048148148148148155,75.9777777777778,0)" xlink:href="#aq"/></g><path d="M140-251c81 0 123 46 123 126C263-46 219 4 140 4 59 4 17-45 17-125s42-126 123-126zm0 227c63 0 89-41 89-101s-29-99-89-99c-61 0-89 39-89 99S79-25 140-24" id="ar"/><g id="p"><use transform="matrix(0.048148148148148155,0,0,0.048148148148148155,0,0)" xlink:href="#ar"/><use transform="matrix(0.048148148148148155,0,0,0.048148148148148155,13.481481481481483,0)" xlink:href="#ab"/><use transform="matrix(0.048148148148148155,0,0,0.048148148148148155,23.111111111111114,0)" xlink:href="#ag"/><use transform="matrix(0.048148148148148155,0,0,0.048148148148148155,32.74074074074075,0)" xlink:href="#T"/></g><path d="M63-220v92h138v28H63V0H30v-248h175v28H63" id="as"/><g id="q"><use transform="matrix(0.048148148148148155,0,0,0.048148148148148155,0,0)" xlink:href="#as"/><use transform="matrix(0.048148148148148155,0,0,0.048148148148148155,10.544444444444446,0)" xlink:href="#ad"/><use transform="matrix(0.048148148148148155,0,0,0.048148148148148155,14.34814814814815,0)" xlink:href="#ae"/><use transform="matrix(0.048148148148148155,0,0,0.048148148148148155,18.151851851851855,0)" xlink:href="#ag"/></g><g id="r"><use transform="matrix(0.048148148148148155,0,0,0.048148148148148155,0,0)" xlink:href="#R"/><use transform="matrix(0.048148148148148155,0,0,0.048148148148148155,12.470370370370372,0)" xlink:href="#ac"/><use transform="matrix(0.048148148148148155,0,0,0.048148148148148155,22.1,0)" xlink:href="#S"/><use transform="matrix(0.048148148148148155,0,0,0.048148148148148155,31.729629629629635,0)" xlink:href="#S"/><use transform="matrix(0.048148148148148155,0,0,0.048148148148148155,41.35925925925927,0)" xlink:href="#U"/><use transform="matrix(0.048148148148148155,0,0,0.048148148148148155,50.02592592592593,0)" xlink:href="#ag"/><use transform="matrix(0.048148148148148155,0,0,0.048148148148148155,59.655555555555566,0)" xlink:href="#W"/></g><path fill="#333" d="M30 0v-248h187v28H63v79h144v27H63v87h162V0H30" id="at"/><path fill="#333" d="M117-194c89-4 53 116 60 194h-32v-121c0-31-8-49-39-48C34-167 62-67 57 0H25l-1-190h30c1 10-1 24 2 32 11-22 29-35 61-36" id="au"/><path fill="#333" d="M96-169c-40 0-48 33-48 73s9 75 48 75c24 0 41-14 43-38l32 2c-6 37-31 61-74 61-59 0-76-41-82-99-10-93 101-131 147-64 4 7 5 14 7 22l-32 3c-4-21-16-35-41-35" id="av"/><path fill="#333" d="M114-163C36-179 61-72 57 0H25l-1-190h30c1 12-1 29 2 39 6-27 23-49 58-41v29" id="aw"/><path fill="#333" d="M179-190L93 31C79 59 56 82 12 73V49c39 6 53-20 64-50L1-190h34L92-34l54-156h33" id="ax"/><path fill="#333" d="M115-194c55 1 70 41 70 98S169 2 115 4C84 4 66-9 55-30l1 105H24l-1-265h31l2 30c10-21 28-34 59-34zm-8 174c40 0 45-34 45-75s-6-73-45-74c-42 0-51 32-51 76 0 43 10 73 51 73" id="ay"/><path fill="#333" d="M59-47c-2 24 18 29 38 22v24C64 9 27 4 27-40v-127H5v-23h24l9-43h21v43h35v23H59v120" id="az"/><g id="s"><use transform="matrix(0.04938271604938272,0,0,0.04938271604938272,0,0)" xlink:href="#at"/><use transform="matrix(0.04938271604938272,0,0,0.04938271604938272,11.851851851851853,0)" xlink:href="#au"/><use transform="matrix(0.04938271604938272,0,0,0.04938271604938272,21.7283950617284,0)" xlink:href="#av"/><use transform="matrix(0.04938271604938272,0,0,0.04938271604938272,30.617283950617285,0)" xlink:href="#aw"/><use transform="matrix(0.04938271604938272,0,0,0.04938271604938272,36.49382716049383,0)" xlink:href="#ax"/><use transform="matrix(0.04938271604938272,0,0,0.04938271604938272,45.38271604938272,0)" xlink:href="#ay"/><use transform="matrix(0.04938271604938272,0,0,0.04938271604938272,55.25925925925927,0)" xlink:href="#az"/></g><path fill="#333" d="M30-248c118-7 216 8 213 122C240-48 200 0 122 0H30v-248zM63-27c89 8 146-16 146-99s-60-101-146-95v194" id="aA"/><path fill="#333" d="M100-194c63 0 86 42 84 106H49c0 40 14 67 53 68 26 1 43-12 49-29l28 8c-11 28-37 45-77 45C44 4 14-33 15-96c1-61 26-98 85-98zm52 81c6-60-76-77-97-28-3 7-6 17-6 28h103" id="aB"/><g id="t"><use transform="matrix(0.04938271604938272,0,0,0.04938271604938272,0,0)" xlink:href="#aA"/><use transform="matrix(0.04938271604938272,0,0,0.04938271604938272,12.790123456790125,0)" xlink:href="#aB"/><use transform="matrix(0.04938271604938272,0,0,0.04938271604938272,22.66666666666667,0)" xlink:href="#av"/><use transform="matrix(0.04938271604938272,0,0,0.04938271604938272,31.555555555555557,0)" xlink:href="#aw"/><use transform="matrix(0.04938271604938272,0,0,0.04938271604938272,37.4320987654321,0)" xlink:href="#ax"/><use transform="matrix(0.04938271604938272,0,0,0.04938271604938272,46.32098765432099,0)" xlink:href="#ay"/><use transform="matrix(0.04938271604938272,0,0,0.04938271604938272,56.19753086419754,0)" xlink:href="#az"/></g><path d="M185-189c-5-48-123-54-124 2 14 75 158 14 163 119 3 78-121 87-175 55-17-10-28-26-33-46l33-7c5 56 141 63 141-1 0-78-155-14-162-118-5-82 145-84 179-34 5 7 8 16 11 25" id="aC"/><g id="u"><use transform="matrix(0.048148148148148155,0,0,0.048148148148148155,0,0)" xlink:href="#aC"/><use transform="matrix(0.048148148148148155,0,0,0.048148148148148155,11.555555555555557,0)" xlink:href="#ag"/><use transform="matrix(0.048148148148148155,0,0,0.048148148148148155,21.18518518518519,0)" xlink:href="#ae"/><use transform="matrix(0.048148148148148155,0,0,0.048148148148148155,24.988888888888894,0)" xlink:href="#ag"/><use transform="matrix(0.048148148148148155,0,0,0.048148148148148155,34.61851851851853,0)" xlink:href="#Y"/><use transform="matrix(0.048148148148148155,0,0,0.048148148148148155,43.2851851851852,0)" xlink:href="#V"/></g><g id="v"><use transform="matrix(0.048148148148148155,0,0,0.048148148148148155,0,0)" xlink:href="#ah"/><use transform="matrix(0.048148148148148155,0,0,0.048148148148148155,4.814814814814816,0)" xlink:href="#T"/><use transform="matrix(0.048148148148148155,0,0,0.048148148148148155,14.444444444444446,0)" xlink:href="#ab"/><use transform="matrix(0.048148148148148155,0,0,0.048148148148148155,24.074074074074076,0)" xlink:href="#X"/><use transform="matrix(0.048148148148148155,0,0,0.048148148148148155,33.70370370370371,0)" xlink:href="#V"/></g><path d="M85-194c31 0 48 13 60 33l-1-100h32l1 261h-30c-2-10 0-23-3-31C134-8 116 4 85 4 32 4 16-35 15-94c0-66 23-100 70-100zm9 24c-40 0-46 34-46 75 0 40 6 74 45 74 42 0 51-32 51-76 0-42-9-74-50-73" id="aD"/><g id="w"><use transform="matrix(0.048148148148148155,0,0,0.048148148148148155,0,0)" xlink:href="#aa"/><use transform="matrix(0.048148148148148155,0,0,0.048148148148148155,9.629629629629632,0)" xlink:href="#T"/><use transform="matrix(0.048148148148148155,0,0,0.048148148148148155,19.259259259259263,0)" xlink:href="#aD"/></g><g id="x"><use transform="matrix(0.048148148148148155,0,0,0.048148148148148155,0,0)" xlink:href="#ar"/><use transform="matrix(0.048148148148148155,0,0,0.048148148148148155,13.481481481481483,0)" xlink:href="#X"/><use transform="matrix(0.048148148148148155,0,0,0.048148148148148155,23.111111111111114,0)" xlink:href="#V"/><use transform="matrix(0.048148148148148155,0,0,0.048148148148148155,27.92592592592593,0)" xlink:href="#ab"/><use transform="matrix(0.048148148148148155,0,0,0.048148148148148155,37.555555555555564,0)" xlink:href="#X"/><use transform="matrix(0.048148148148148155,0,0,0.048148148148148155,47.1851851851852,0)" xlink:href="#V"/></g><g id="y"><use transform="matrix(0.048148148148148155,0,0,0.048148148148148155,0,0)" xlink:href="#as"/><use transform="matrix(0.048148148148148155,0,0,0.048148148148148155,10.544444444444446,0)" xlink:href="#ad"/><use transform="matrix(0.048148148148148155,0,0,0.048148148148148155,14.34814814814815,0)" xlink:href="#ae"/><use transform="matrix(0.048148148148148155,0,0,0.048148148148148155,18.151851851851855,0)" xlink:href="#ag"/><use transform="matrix(0.048148148148148155,0,0,0.048148148148148155,27.781481481481485,0)" xlink:href="#U"/></g><path fill="#fff" d="M30 0v-248h187v28H63v79h144v27H63v87h162V0H30" id="aE"/><path fill="#fff" d="M117-194c89-4 53 116 60 194h-32v-121c0-31-8-49-39-48C34-167 62-67 57 0H25l-1-190h30c1 10-1 24 2 32 11-22 29-35 61-36" id="aF"/><path fill="#fff" d="M85-194c31 0 48 13 60 33l-1-100h32l1 261h-30c-2-10 0-23-3-31C134-8 116 4 85 4 32 4 16-35 15-94c0-66 23-100 70-100zm9 24c-40 0-46 34-46 75 0 40 6 74 45 74 42 0 51-32 51-76 0-42-9-74-50-73" id="aG"/><g id="z"><use transform="matrix(0.06172839506172839,0,0,0.06172839506172839,0,0)" xlink:href="#aE"/><use transform="matrix(0.06172839506172839,0,0,0.06172839506172839,14.814814814814813,0)" xlink:href="#aF"/><use transform="matrix(0.06172839506172839,0,0,0.06172839506172839,27.160493827160494,0)" xlink:href="#aG"/></g><g id="A"><use transform="matrix(0.048148148148148155,0,0,0.048148148148148155,0,0)" xlink:href="#al"/><use transform="matrix(0.048148148148148155,0,0,0.048148148148148155,12.470370370370372,0)" xlink:href="#ag"/><use transform="matrix(0.048148148148148155,0,0,0.048148148148148155,22.1,0)" xlink:href="#aa"/><use transform="matrix(0.048148148148148155,0,0,0.048148148148148155,31.729629629629635,0)" xlink:href="#aD"/></g><path d="M30 0v-248h187v28H63v79h144v27H63v87h162V0H30" id="aH"/><path d="M179-190L93 31C79 59 56 82 12 73V49c39 6 53-20 64-50L1-190h34L92-34l54-156h33" id="aI"/><g id="B"><use transform="matrix(0.048148148148148155,0,0,0.048148148148148155,0,0)" xlink:href="#aH"/><use transform="matrix(0.048148148148148155,0,0,0.048148148148148155,11.555555555555557,0)" xlink:href="#T"/><use transform="matrix(0.048148148148148155,0,0,0.048148148148148155,21.18518518518519,0)" xlink:href="#Y"/><use transform="matrix(0.048148148148148155,0,0,0.048148148148148155,29.851851851851855,0)" xlink:href="#W"/><use transform="matrix(0.048148148148148155,0,0,0.048148148148148155,35.58148148148149,0)" xlink:href="#aI"/><use transform="matrix(0.048148148148148155,0,0,0.048148148148148155,44.24814814814816,0)" xlink:href="#ab"/><use transform="matrix(0.048148148148148155,0,0,0.048148148148148155,53.877777777777794,0)" xlink:href="#V"/></g><g id="C"><use transform="matrix(0.048148148148148155,0,0,0.048148148148148155,0,0)" xlink:href="#R"/><use transform="matrix(0.048148148148148155,0,0,0.048148148148148155,12.470370370370372,0)" xlink:href="#S"/><use transform="matrix(0.048148148148148155,0,0,0.048148148148148155,22.1,0)" xlink:href="#T"/><use transform="matrix(0.048148148148148155,0,0,0.048148148148148155,31.729629629629635,0)" xlink:href="#V"/><use transform="matrix(0.048148148148148155,0,0,0.048148148148148155,36.54444444444445,0)" xlink:href="#ag"/><use transform="matrix(0.048148148148148155,0,0,0.048148148148148155,46.174074074074085,0)" xlink:href="#T"/><use transform="matrix(0.048148148148148155,0,0,0.048148148148148155,55.803703703703725,0)" xlink:href="#V"/><use transform="matrix(0.048148148148148155,0,0,0.048148148148148155,60.61851851851854,0)" xlink:href="#U"/></g><path d="M30-248c118-7 216 8 213 122C240-48 200 0 122 0H30v-248zM63-27c89 8 146-16 146-99s-60-101-146-95v194" id="aJ"/><g id="D"><use transform="matrix(0.048148148148148155,0,0,0.048148148148148155,0,0)" xlink:href="#aJ"/><use transform="matrix(0.048148148148148155,0,0,0.048148148148148155,12.470370370370372,0)" xlink:href="#ag"/><use transform="matrix(0.048148148148148155,0,0,0.048148148148148155,22.1,0)" xlink:href="#Y"/><use transform="matrix(0.048148148148148155,0,0,0.048148148148148155,30.766666666666673,0)" xlink:href="#W"/><use transform="matrix(0.048148148148148155,0,0,0.048148148148148155,36.4962962962963,0)" xlink:href="#aI"/><use transform="matrix(0.048148148148148155,0,0,0.048148148148148155,45.162962962962965,0)" xlink:href="#ab"/><use transform="matrix(0.048148148148148155,0,0,0.048148148148148155,54.7925925925926,0)" xlink:href="#V"/></g><g id="E"><use transform="matrix(0.048148148148148155,0,0,0.048148148148148155,0,0)" xlink:href="#ao"/><use transform="matrix(0.048148148148148155,0,0,0.048148148148148155,15.985185185185184,0)" xlink:href="#W"/><use transform="matrix(0.048148148148148155,0,0,0.048148148148148155,21.714814814814815,0)" xlink:href="#ad"/><use transform="matrix(0.048148148148148155,0,0,0.048148148148148155,25.518518518518515,0)" xlink:href="#V"/><use transform="matrix(0.048148148148148155,0,0,0.048148148148148155,30.33333333333334,0)" xlink:href="#ag"/></g><g id="F"><use transform="matrix(0.048148148148148155,0,0,0.048148148148148155,0,0)" xlink:href="#aH"/><use transform="matrix(0.048148148148148155,0,0,0.048148148148148155,11.555555555555557,0)" xlink:href="#T"/><use transform="matrix(0.048148148148148155,0,0,0.048148148148148155,21.18518518518519,0)" xlink:href="#Y"/><use transform="matrix(0.048148148148148155,0,0,0.048148148148148155,29.851851851851855,0)" xlink:href="#W"/><use transform="matrix(0.048148148148148155,0,0,0.048148148148148155,35.58148148148149,0)" xlink:href="#aI"/><use transform="matrix(0.048148148148148155,0,0,0.048148148148148155,44.24814814814816,0)" xlink:href="#ab"/><use transform="matrix(0.048148148148148155,0,0,0.048148148148148155,53.877777777777794,0)" xlink:href="#V"/><use transform="matrix(0.048148148148148155,0,0,0.048148148148148155,58.69259259259261,0)" xlink:href="#ag"/><use transform="matrix(0.048148148148148155,0,0,0.048148148148148155,68.32222222222224,0)" xlink:href="#aD"/></g><path d="M127-220V0H93v-220H8v-28h204v28h-85" id="aK"/><path d="M141 0L90-78 38 0H4l68-98-65-92h35l48 74 47-74h35l-64 92 68 98h-35" id="aL"/><g id="G"><use transform="matrix(0.048148148148148155,0,0,0.048148148148148155,0,0)" xlink:href="#aK"/><use transform="matrix(0.048148148148148155,0,0,0.048148148148148155,8.61851851851852,0)" xlink:href="#ag"/><use transform="matrix(0.048148148148148155,0,0,0.048148148148148155,18.248148148148154,0)" xlink:href="#aL"/><use transform="matrix(0.048148148148148155,0,0,0.048148148148148155,26.914814814814825,0)" xlink:href="#V"/></g><g id="H"><use transform="matrix(0.048148148148148155,0,0,0.048148148148148155,0,0)" xlink:href="#V"/><use transform="matrix(0.048148148148148155,0,0,0.048148148148148155,4.814814814814816,0)" xlink:href="#S"/></g><g id="I"><use transform="matrix(0.048148148148148155,0,0,0.048148148148148155,0,0)" xlink:href="#as"/><use transform="matrix(0.048148148148148155,0,0,0.048148148148148155,10.544444444444446,0)" xlink:href="#ad"/><use transform="matrix(0.048148148148148155,0,0,0.048148148148148155,14.34814814814815,0)" xlink:href="#ae"/><use transform="matrix(0.048148148148148155,0,0,0.048148148148148155,18.151851851851855,0)" xlink:href="#ag"/></g><g id="J"><use transform="matrix(0.048148148148148155,0,0,0.048148148148148155,0,0)" xlink:href="#aJ"/><use transform="matrix(0.048148148148148155,0,0,0.048148148148148155,12.470370370370372,0)" xlink:href="#ag"/><use transform="matrix(0.048148148148148155,0,0,0.048148148148148155,22.1,0)" xlink:href="#Y"/><use transform="matrix(0.048148148148148155,0,0,0.048148148148148155,30.766666666666673,0)" xlink:href="#W"/><use transform="matrix(0.048148148148148155,0,0,0.048148148148148155,36.4962962962963,0)" xlink:href="#aI"/><use transform="matrix(0.048148148148148155,0,0,0.048148148148148155,45.162962962962965,0)" xlink:href="#ab"/><use transform="matrix(0.048148148148148155,0,0,0.048148148148148155,54.7925925925926,0)" xlink:href="#V"/><use transform="matrix(0.048148148148148155,0,0,0.048148148148148155,59.607407407407415,0)" xlink:href="#ag"/><use transform="matrix(0.048148148148148155,0,0,0.048148148148148155,69.23703703703704,0)" xlink:href="#aD"/></g><g id="K"><use transform="matrix(0.048148148148148155,0,0,0.048148148148148155,0,0)" xlink:href="#aJ"/><use transform="matrix(0.048148148148148155,0,0,0.048148148148148155,12.470370370370372,0)" xlink:href="#ad"/><use transform="matrix(0.048148148148148155,0,0,0.048148148148148155,16.274074074074075,0)" xlink:href="#U"/><use transform="matrix(0.048148148148148155,0,0,0.048148148148148155,24.940740740740743,0)" xlink:href="#ab"/><use transform="matrix(0.048148148148148155,0,0,0.048148148148148155,34.57037037037038,0)" xlink:href="#ae"/><use transform="matrix(0.048148148148148155,0,0,0.048148148148148155,38.37407407407408,0)" xlink:href="#aa"/><use transform="matrix(0.048148148148148155,0,0,0.048148148148148155,48.003703703703714,0)" xlink:href="#aI"/></g><g id="L"><use transform="matrix(0.048148148148148155,0,0,0.048148148148148155,0,0)" xlink:href="#aC"/><use transform="matrix(0.048148148148148155,0,0,0.048148148148148155,11.555555555555557,0)" xlink:href="#X"/><use transform="matrix(0.048148148148148155,0,0,0.048148148148148155,21.18518518518519,0)" xlink:href="#Y"/><use transform="matrix(0.048148148148148155,0,0,0.048148148148148155,29.851851851851855,0)" xlink:href="#Y"/><use transform="matrix(0.048148148148148155,0,0,0.048148148148148155,38.518518518518526,0)" xlink:href="#ag"/><use transform="matrix(0.048148148148148155,0,0,0.048148148148148155,48.14814814814816,0)" xlink:href="#U"/><use transform="matrix(0.048148148148148155,0,0,0.048148148148148155,56.814814814814824,0)" xlink:href="#U"/></g><path d="M240 0l2-218c-23 76-54 145-80 218h-23L58-218 59 0H30v-248h44l77 211c21-75 51-140 76-211h43V0h-30" id="aM"/><g id="M"><use transform="matrix(0.048148148148148155,0,0,0.048148148148148155,0,0)" xlink:href="#aM"/><use transform="matrix(0.048148148148148155,0,0,0.048148148148148155,14.396296296296299,0)" xlink:href="#ag"/><use transform="matrix(0.048148148148148155,0,0,0.048148148148148155,24.025925925925932,0)" xlink:href="#U"/><use transform="matrix(0.048148148148148155,0,0,0.048148148148148155,32.692592592592604,0)" xlink:href="#U"/><use transform="matrix(0.048148148148148155,0,0,0.048148148148148155,41.359259259259275,0)" xlink:href="#aa"/><use transform="matrix(0.048148148148148155,0,0,0.048148148148148155,50.98888888888891,0)" xlink:href="#aq"/><use transform="matrix(0.048148148148148155,0,0,0.048148148148148155,60.61851851851854,0)" xlink:href="#ag"/></g></defs></g></svg>